999
FreeCAD v1.1 20260725 (Git shallow)
  0
SECTION
  2
HEADER
  9
$ACADVER
  1
AC1014
  9
$ACADMAINTVER
 70
     9
  9
$DWGCODEPAGE
  3
ANSI_1252
  9
$TEXTSTYLE
  7
STANDARD
  9
$DIMSTYLE
  2
STANDARD
  9
$DIMTXSTY
  7
STANDARD
  9
$CMLSTYLE
  2
STANDARD
  9
$LUNITS
 70
2
  9
$INSUNITS
 70
4
  9
$PEXTMAX
 10
50
 20
50
 30
50
  9
$PEXTMIN
 10
0
 20
0
 30
0
  9
$HANDSEED
  5
FFFF
  0
ENDSEC
  0
SECTION
  2
CLASSES
  0
CLASS
  1
ACDBDICTIONARYWDFLT
  2
AcDbDictionaryWithDefault
  3
ObjectDBX Classes
 90
        0
280
     0
281
     0
  0
CLASS
  1
XRECORD
  2
AcDbXrecord
  3
ObjectDBX Classes
 90
        0
280
     0
281
     0
  0
CLASS
  1
LWPOLYLINE
  2
AcDbPolyline
  3
ObjectDBX Classes
 90
        0
280
     0
281
     1
  0
ENDSEC
  0
SECTION
  2
TABLES
  0
TABLE
  2
VPORT
  5
20
330
0
100
AcDbSymbolTable
 70
     1
  0
VPORT
  5
21
330
20
100
AcDbSymbolTableRecord
100
AcDbViewportTableRecord
  2
*ACTIVE
 70
     0
  0
ENDTAB
  0
TABLE
  2
LTYPE
  5
22
330
0
100
AcDbSymbolTable
 70
     1
  0
LTYPE
  5
23
330
21
100
AcDbSymbolTableRecord
100
AcDbLinetypeTableRecord
  2
BYBLOCK
 70
     0
  3

 72
    65
 73
     0
 40
0.0
  0
LTYPE
  5
24
330
21
100
AcDbSymbolTableRecord
100
AcDbLinetypeTableRecord
  2
BYLAYER
 70
     0
  3

 72
    65
 73
     0
 40
0.0
  0
LTYPE
  5
25
330
21
100
AcDbSymbolTableRecord
100
AcDbLinetypeTableRecord
  2
CONTINUOUS
 70
     0
  3
Solid line
 72
    65
 73
     0
 40
0.0
  0
ENDTAB
  0
TABLE
  2
LAYER
  5
A20
330
0
100
AcDbSymbolTable
 70
4
  0
LAYER
  5
A21
330
A20
100
AcDbSymbolTableRecord
100
AcDbLayerTableRecord
  2
0
 70
   0
 62
   7
  6
CONTINUOUS
  0
LAYER
  5
A22
330
A20
100
AcDbSymbolTableRecord
100
AcDbLayerTableRecord
  2
none
 70
    0
 62
    7
  6
CONTINUOUS
  0
LAYER
  5
A23
330
A20
100
AcDbSymbolTableRecord
100
AcDbLayerTableRecord
  2
ECR_DocPlan_975bd98d_7a56_4765_b5d5_f6d778452c90
 70
    0
 62
    7
  6
CONTINUOUS
  0
LAYER
  5
A24
330
A20
100
AcDbSymbolTableRecord
100
AcDbLayerTableRecord
  2
ECR_DocPlan_a1_plan_owner_switch_0001
 70
    0
 62
    7
  6
CONTINUOUS
  0
ENDTAB
  0
TABLE
  2
STYLE
  5
70
330
0
100
AcDbSymbolTable
 70
     2
  0
STYLE
  5
71
330
70
100
AcDbSymbolTableRecord
100
AcDbTextStyleTableRecord
  2
STANDARD
 70
     0
 40
0.0
 41
1.0
 50
0.0
 71
     0
 42
2.5
  3
arial.ttf
  4

  0
STYLE
  5
72
330
70
100
AcDbSymbolTableRecord
100
AcDbTextStyleTableRecord
  2
ANNOTATIVE
 70
     0
 40
0.0
 41
1.0
 50
0.0
 71
     0
 42
2.5
  3
arial.ttf
  4

  0
ENDTAB
  0
TABLE
  2
VIEW
  5
73
330
0
100
AcDbSymbolTable
 70
     0
  0
ENDTAB
  0
TABLE
  2
UCS
  5
74
330
0
100
AcDbSymbolTable
 70
     0
  0
ENDTAB
  0
TABLE
  2
APPID
  5
75
330
0
100
AcDbSymbolTable
 70
     2
  0
APPID
  5
76
330
75
100
AcDbSymbolTableRecord
100
AcDbRegAppTableRecord
  2
ACAD
 70
     0
  0
APPID
  5
77
330
75
100
AcDbSymbolTableRecord
100
AcDbRegAppTableRecord
  2
ACADANNOTATIVE
 70
     0
  0
ENDTAB
  0
TABLE
  2
DIMSTYLE
  5
78
330
0
100
AcDbSymbolTable
 70
     2
  0
DIMSTYLE
105
79
330
78
100
AcDbSymbolTableRecord
100
AcDbDimStyleTableRecord
  2
STANDARD
 70
     0
  3

  4

  5

  6

  7

 40
0.0
 41
2.5
 42
0.625
 43
3.75
 44
1.25
 45
0.0
 46
0.0
 47
0.0
 48
0.0
140
2.5
141
2.5
142
0.0
143
0.03937007874016
144
1.0
145
0.0
146
1.0
147
0.625
 71
     0
 72
     0
 73
     0
 74
     0
 75
     0
 76
     0
 77
     1
 78
     8
170
     0
171
     3
172
     1
173
     0
174
     0
175
     0
176
     0
177
     0
178
     0
270
     2
271
     2
272
     2
273
     2
274
     3
340
71
275
     0
280
     0
281
     0
282
     0
283
     0
284
     8
285
     0
286
     0
287
     3
288
     0
  0
ENDTAB
  0
TABLE
  2
BLOCK_RECORD
  5
A01
330
0
100
AcDbSymbolTable
  70
5
  0
BLOCK_RECORD
  5
A02
330
A01
100
AcDbSymbolTableRecord
100
AcDbBlockTableRecord
  2
*MODEL_SPACE
  0
BLOCK_RECORD
  5
A03
330
A01
100
AcDbSymbolTableRecord
100
AcDbBlockTableRecord
  2
*PAPER_SPACE
  0
ENDTAB
  0
ENDSEC
  0
SECTION
  2
BLOCKS
  0
BLOCK
  5
A04
330
A02
100
AcDbEntity
  8
0
100
AcDbBlockBegin
  2
*MODEL_SPACE
 70
   0
 10
0
 20
0
 30
0
  3
*MODEL_SPACE
  1
 
  0
ENDBLK
  5
A05
330
A02
100
AcDbEntity
  8
0
100
AcDbBlockEnd
  0
BLOCK
  5
A06
330
A03
100
AcDbEntity
 67
1
  8
0
100
AcDbBlockBegin
  2
*PAPER_SPACE
 70
   0
 10
0
 20
0
 30
0
  3
*PAPER_SPACE
  1
 
  0
ENDBLK
  5
A07
330
A03
100
AcDbEntity
 67
    1
  8
0
100
AcDbBlockEnd
  0
ENDSEC
  0
SECTION
  2
ENTITIES
  0
LWPOLYLINE
  5
A08
330
A02
100
AcDbEntity
100
AcDbPolyline
  8
ECR_DocPlan_975bd98d_7a56_4765_b5d5_f6d778452c90
 90
21
 70
0
 43
0
 10
19574.668113401
 20
11514.750496089
 10
19579.668113401
 20
11514.750496089
 10
19584.668113401
 20
11514.750496089
 10
19589.668113401
 20
11514.750496089
 10
19594.668113401
 20
11514.750496089
 10
19599.668113401
 20
11514.750496089
 10
19604.668113401
 20
11514.750496089
 10
19609.668113401
 20
11514.750496089
 10
19614.668113401
 20
11514.750496089
 10
19619.668113401
 20
11514.750496089
 10
19624.668113401
 20
11514.750496089
 10
19629.668113401
 20
11514.750496089
 10
19634.668113401
 20
11514.750496089
 10
19639.668113401
 20
11514.750496089
 10
19644.668113401
 20
11514.750496089
 10
19649.668113401
 20
11514.750496089
 10
19654.668113401
 20
11514.750496089
 10
19659.668113401
 20
11514.750496089
 10
19664.668113401
 20
11514.750496089
 10
19669.668113401
 20
11514.750496089
 10
19671.200000000
 20
11514.750496089
  0
LWPOLYLINE
  5
A09
330
A02
100
AcDbEntity
100
AcDbPolyline
  8
ECR_DocPlan_975bd98d_7a56_4765_b5d5_f6d778452c90
 90
21
 70
0
 43
0
 10
19574.668113401
 20
11555.250496089
 10
19579.668113401
 20
11555.250496089
 10
19584.668113401
 20
11555.250496089
 10
19589.668113401
 20
11555.250496089
 10
19594.668113401
 20
11555.250496089
 10
19599.668113401
 20
11555.250496089
 10
19604.668113401
 20
11555.250496089
 10
19609.668113401
 20
11555.250496089
 10
19614.668113401
 20
11555.250496089
 10
19619.668113401
 20
11555.250496089
 10
19624.668113401
 20
11555.250496089
 10
19629.668113401
 20
11555.250496089
 10
19634.668113401
 20
11555.250496089
 10
19639.668113401
 20
11555.250496089
 10
19644.668113401
 20
11555.250496089
 10
19649.668113401
 20
11555.250496089
 10
19654.668113401
 20
11555.250496089
 10
19659.668113401
 20
11555.250496089
 10
19664.668113401
 20
11555.250496089
 10
19669.668113401
 20
11555.250496089
 10
19671.200000000
 20
11555.250496089
  0
LWPOLYLINE
  5
A0A
330
A02
100
AcDbEntity
100
AcDbPolyline
  8
ECR_DocPlan_975bd98d_7a56_4765_b5d5_f6d778452c90
 90
85
 70
1
 43
0
 10
19682.000000000
 20
11602.500496089
 10
19677.004571219
 20
11602.315395564
 10
19672.036539668
 20
11601.761109165
 10
19667.123152317
 20
11600.840676853
 10
19662.291356441
 20
11599.559146703
 10
19657.567651833
 20
11597.923547216
 10
19652.977945462
 20
11595.942848771
 10
19648.547409388
 20
11593.627914430
 10
19644.300342709
 20
11590.991440358
 10
19640.260038293
 20
11588.047886192
 10
19636.448655027
 20
11584.813395735
 10
19632.887096292
 20
11581.305708424
 10
19629.594895312
 20
11577.544062026
 10
19626.590108034
 20
11573.549087143
 10
19623.889214091
 20
11569.342694054
 10
19621.507026430
 20
11564.947952554
 10
19619.456610064
 20
11560.388965426
 10
19617.749210418
 20
11555.690736254
 10
19616.394191658
 20
11550.879032287
 10
19615.398985330
 20
11545.980243123
 10
19614.769049604
 20
11541.021235976
 10
19614.507839336
 20
11536.029208322
 10
19614.616787124
 20
11531.031538736
 10
19615.095295448
 20
11526.055636738
 10
19615.940739949
 20
11521.128792464
 10
19617.148483819
 20
11516.278026994
 10
19618.711903236
 20
11511.529944156
 10
19620.622423689
 20
11506.910584622
 10
19622.869567005
 20
11502.445283084
 10
19625.441008815
 20
11498.158529310
 10
19628.322646151
 20
11494.073833829
 10
19631.498674787
 20
11490.213598990
 10
19634.951675922
 20
11486.598996098
 10
19638.662711708
 20
11483.249849296
 10
19642.611429119
 20
11480.184526847
 10
19646.776171571
 20
11477.419840389
 10
19651.134097702
 20
11474.970952735
 10
19655.661306640
 20
11472.851294710
 10
19660.332969088
 20
11471.072491495
 10
19665.123463500
 20
11469.644298864
 10
19670.006516602
 20
11468.574549683
 10
19674.955347484
 20
11467.869110948
 10
19679.942814481
 20
11467.531851611
 10
19684.941564029
 20
11467.564621356
 10
19689.924180688
 20
11467.967240459
 10
19694.863337494
 20
11468.737500771
 10
19699.731945840
 20
11469.871177831
 10
19704.503304039
 20
11471.362054033
 10
19709.151243766
 20
11473.201952725
 10
19713.650273583
 20
11475.380783056
 10
19717.975718740
 20
11477.886595319
 10
19722.103856507
 20
11480.705646487
 10
19726.012046276
 20
11483.822475586
 10
19729.678853738
 20
11487.219988492
 10
19733.084168433
 20
11490.879551681
 10
19736.209314050
 20
11494.781094425
 10
19739.037150851
 20
11498.903218868
 10
19741.552169680
 20
11503.223317385
 10
19743.740577016
 20
11507.717696568
 10
19745.590370627
 20
11512.361707174
 10
19747.091405393
 20
11517.129879312
 10
19748.235448949
 20
11521.996062133
 10
19749.016226834
 20
11526.933567252
 10
19749.429456904
 20
11531.915315119
 10
19749.472872814
 20
11536.913983538
 10
19749.146236451
 20
11541.902157512
 10
19748.451339241
 20
11546.852479600
 10
19747.391992317
 20
11551.737799958
 10
19745.974005627
 20
11556.531325243
 10
19744.205156062
 20
11561.206765556
 10
19742.095144805
 20
11565.738478632
 10
19739.655544131
 20
11570.101610472
 10
19736.899733931
 20
11574.272231655
 10
19733.842828335
 20
11578.227468574
 10
19730.501592821
 20
11581.945628891
 10
19726.894352261
 20
11585.406320505
 10
19723.040890421
 20
11588.590563391
 10
19718.962341460
 20
11591.480893696
 10
19714.681074014
 20
11594.061459519
 10
19710.220568525
 20
11596.318107850
 10
19705.605288457
 20
11598.238462192
 10
19700.860546128
 20
11599.811990438
 10
19696.012363889
 20
11601.030062635
 10
19691.087331400
 20
11601.885998315
 10
19686.112459805
 20
11602.375103133
  0
LWPOLYLINE
  5
A0B
330
A02
100
AcDbEntity
100
AcDbPolyline
  8
ECR_DocPlan_975bd98d_7a56_4765_b5d5_f6d778452c90
 90
4
 70
0
 43
0
 10
19763.000000000
 20
11535.000496089
 10
19758.000000000
 20
11535.000496089
 10
19753.000000000
 20
11535.000496089
 10
19749.500000000
 20
11535.000496089
  0
LWPOLYLINE
  5
A0C
330
A02
100
AcDbEntity
100
AcDbPolyline
  8
ECR_DocPlan_a1_plan_owner_switch_0001
 90
3
 70
0
 43
0
 10
20933.423550524
 20
11935.321978869
 10
20929.599425350
 20
11938.543169123
 10
20927.947607498
 20
11939.934551290
  0
LWPOLYLINE
  5
A0D
330
A02
100
AcDbEntity
100
AcDbPolyline
  8
ECR_DocPlan_a1_plan_owner_switch_0001
 90
5
 70
0
 43
0
 10
20927.947607498
 20
11939.934551290
 10
20923.673638736
 20
11937.361211446
 10
20920.102879486
 20
11933.877167054
 10
20917.425265105
 20
11929.667740946
 10
20915.833008718
 20
11925.174386025
  0
LWPOLYLINE
  5
A0E
330
A02
100
AcDbEntity
100
AcDbPolyline
  8
ECR_DocPlan_a1_plan_owner_switch_0001
 90
4
 70
0
 43
0
 10
20915.833008718
 20
11925.174386025
 10
20910.870049846
 20
11925.781872021
 10
20905.907090974
 20
11926.389358017
 10
20903.852775412
 20
11926.640814450
  0
LWPOLYLINE
  5
A0F
330
A02
100
AcDbEntity
100
AcDbPolyline
  8
ECR_DocPlan_a1_plan_owner_switch_0001
 90
3
 70
0
 43
0
 10
20903.852775412
 20
11926.640814450
 10
20903.243428695
 20
11921.678083692
 10
20903.072811614
 20
11920.288519080
  0
LWPOLYLINE
  5
A10
330
A02
100
AcDbEntity
100
AcDbPolyline
  8
ECR_DocPlan_a1_plan_owner_switch_0001
 90
4
 70
0
 43
0
 10
20903.072811614
 20
11920.288519080
 10
20908.035542372
 20
11919.679172363
 10
20912.998273130
 20
11919.069825646
 10
20915.311651710
 20
11918.785778472
  0
LWPOLYLINE
  5
A11
330
A02
100
AcDbEntity
100
AcDbPolyline
  8
ECR_DocPlan_a1_plan_owner_switch_0001
 90
13
 70
0
 43
0
 10
20915.311651710
 20
11918.785778472
 10
20916.218826351
 20
11913.880075556
 10
20918.225745903
 20
11909.312673575
 10
20921.225658565
 20
11905.326521175
 10
20925.058993379
 20
11902.133649248
 10
20929.521848105
 20
11899.903892617
 10
20934.376835162
 20
11898.755856201
 10
20939.365708719
 20
11898.750606203
 10
20944.223101273
 20
11899.888421880
 10
20948.690639039
 20
11902.108780691
 10
20952.530685337
 20
11905.293577602
 10
20955.538980932
 20
11909.273407316
 10
20957.484162348
 20
11913.610747222
  0
LWPOLYLINE
  5
A12
330
A02
100
AcDbEntity
100
AcDbPolyline
  8
ECR_DocPlan_a1_plan_owner_switch_0001
 90
8
 70
0
 43
0
 10
20957.484162348
 20
11913.610747222
 10
20962.445459370
 20
11912.989835104
 10
20967.406756392
 20
11912.368922986
 10
20972.368053414
 20
11911.748010868
 10
20977.329350436
 20
11911.127098750
 10
20982.290647458
 20
11910.506186633
 10
20987.251944480
 20
11909.885274515
 10
20987.883167853
 20
11909.806276172
  0
LWPOLYLINE
  5
A13
330
A02
100
AcDbEntity
100
AcDbPolyline
  8
ECR_DocPlan_a1_plan_owner_switch_0001
 90
5
 70
0
 43
0
 10
20976.095305863
 20
11899.378112959
 10
20980.767671947
 20
11901.096335729
 10
20984.652780417
 20
11904.209087965
 10
20987.348614094
 20
11908.394273158
 10
20987.883167853
 20
11909.806276172
  0
LWPOLYLINE
  5
A14
330
A02
100
AcDbEntity
100
AcDbPolyline
  8
ECR_DocPlan_a1_plan_owner_switch_0001
 90
3
 70
0
 43
0
 10
20981.666799305
 20
11894.685055183
 10
20977.842674131
 20
11897.906245438
 10
20976.095305863
 20
11899.378112959
  0
LWPOLYLINE
  5
A15
330
A02
100
AcDbEntity
100
AcDbPolyline
  8
ECR_DocPlan_a1_plan_owner_switch_0001
 90
5
 70
0
 43
0
 10
20981.666799305
 20
11894.685055183
 10
20985.996798142
 20
11897.162956918
 10
20989.643961688
 20
11900.566937676
 10
20992.414290502
 20
11904.715933362
 10
20994.087094401
 20
11909.100720719
  0
LWPOLYLINE
  5
A16
330
A02
100
AcDbEntity
100
AcDbPolyline
  8
ECR_DocPlan_a1_plan_owner_switch_0001
 90
4
 70
0
 43
0
 10
20994.087094401
 20
11909.100720719
 10
20999.050217692
 20
11908.494579480
 10
21004.013340982
 20
11907.888438240
 10
21004.850333704
 20
11907.786217163
  0
LWPOLYLINE
  5
A17
330
A02
100
AcDbEntity
100
AcDbPolyline
  8
ECR_DocPlan_a1_plan_owner_switch_0001
 90
3
 70
0
 43
0
 10
21004.850333704
 20
11907.786217163
 10
21005.459680421
 20
11912.748947921
 10
21005.628096178
 20
11914.120584186
  0
LWPOLYLINE
  5
A18
330
A02
100
AcDbEntity
100
AcDbPolyline
  8
ECR_DocPlan_a1_plan_owner_switch_0001
 90
4
 70
0
 43
0
 10
21005.628096178
 20
11914.120584186
 10
21000.665365420
 20
11914.729930903
 10
20995.702634662
 20
11915.339277620
 10
20994.772840663
 20
11915.453441968
  0
LWPOLYLINE
  5
A19
330
A02
100
AcDbEntity
100
AcDbPolyline
  8
ECR_DocPlan_a1_plan_owner_switch_0001
 90
14
 70
0
 43
0
 10
20994.772840663
 20
11915.453441968
 10
20993.996338274
 20
11920.381517757
 10
20992.111490111
 20
11925.000633942
 10
20989.218554768
 20
11929.065091107
 10
20985.471412881
 20
11932.358693180
 10
20981.069381927
 20
11934.706247314
 10
20976.246614155
 20
11935.982882721
 10
20971.259641594
 20
11936.120692777
 10
20966.373730630
 20
11935.112347109
 10
20961.848771994
 20
11933.011481506
 10
20957.925456690
 20
11929.929844934
 10
20954.812473188
 20
11926.031355400
 10
20952.675406895
 20
11921.523380844
 10
20952.407084032
 20
11920.675691901
  0
LWPOLYLINE
  5
A1A
330
A02
100
AcDbEntity
100
AcDbPolyline
  8
ECR_DocPlan_a1_plan_owner_switch_0001
 90
8
 70
0
 43
0
 10
20952.407084032
 20
11920.675691901
 10
20947.445729986
 20
11921.296148213
 10
20942.484375941
 20
11921.916604524
 10
20937.523021895
 20
11922.537060836
 10
20932.561667850
 20
11923.157517148
 10
20927.600313804
 20
11923.777973459
 10
20922.638959758
 20
11924.398429771
 10
20922.009205086
 20
11924.477185542
  0
LWPOLYLINE
  5
A1B
330
A02
100
AcDbEntity
100
AcDbPolyline
  8
ECR_DocPlan_a1_plan_owner_switch_0001
 90
5
 70
0
 43
0
 10
20933.423550524
 20
11935.321978869
 10
20928.814757082
 20
11933.439874377
 10
20925.041962846
 20
11930.191903016
 10
20922.495563120
 20
11925.914153287
 10
20922.009205086
 20
11924.477185542
  0
LWPOLYLINE
  5
A1C
330
A02
100
AcDbEntity
100
AcDbPolyline
  8
ECR_DocPlan_a1_plan_owner_switch_0001
 90
7
 70
0
 43
0
 10
20921.582965573
 20
11917.985661023
 10
20926.545604643
 20
11917.375568025
 10
20931.508243712
 20
11916.765475026
 10
20936.470882782
 20
11916.155382028
 10
20941.433521851
 20
11915.545289030
 10
20946.396160920
 20
11914.935196032
 10
20951.202833851
 20
11914.344277076
  0
LWPOLYLINE
  5
A1D
330
A02
100
AcDbEntity
100
AcDbPolyline
  8
ECR_DocPlan_a1_plan_owner_switch_0001
 90
10
 70
0
 43
0
 10
20921.582965573
 20
11917.985661023
 10
20923.090882075
 20
11913.241245133
 10
20926.027083973
 20
11909.221044550
 10
20930.087743556
 20
11906.341055304
 10
20934.852678241
 20
11904.899288419
 10
20939.828829568
 20
11905.044932795
 10
20944.501283129
 20
11906.762917670
 10
20948.386550080
 20
11909.875472092
 10
20951.082596841
 20
11914.060520021
 10
20951.202833851
 20
11914.344277076
  0
LWPOLYLINE
  5
A1E
330
A02
100
AcDbEntity
100
AcDbPolyline
  8
ECR_DocPlan_a1_plan_owner_switch_0001
 90
10
 70
0
 43
0
 10
20988.544485955
 20
11916.249872191
 10
20987.216146956
 20
11921.047664372
 10
20984.433285128
 20
11925.175493627
 10
20980.483861098
 20
11928.206226895
 10
20975.776547189
 20
11929.826254696
 10
20970.798439471
 20
11929.867942326
 10
20966.064654791
 20
11928.326976099
 10
20962.065028319
 20
11925.362809709
 10
20959.213427149
 20
11921.282164530
 10
20958.651755357
 20
11919.961021155
  0
LWPOLYLINE
  5
A1F
330
A02
100
AcDbEntity
100
AcDbPolyline
  8
ECR_DocPlan_a1_plan_owner_switch_0001
 90
7
 70
0
 43
0
 10
20988.544485955
 20
11916.249872191
 10
20983.582578537
 20
11916.865887430
 10
20978.620671119
 20
11917.481902669
 10
20973.658763701
 20
11918.097917907
 10
20968.696856283
 20
11918.713933146
 10
20963.734948865
 20
11919.329948384
 10
20958.651755357
 20
11919.961021155
  0
ENDSEC
  0
SECTION
  2
OBJECTS
  0
DICTIONARY
  5
F000
330
0
100
AcDbDictionary
  3
ACAD_GROUP
350
F001
  0
DICTIONARY
  5
F001
330
F000
100
AcDbDictionary
  0
ENDSEC
  0
EOF