<svg xmlns="http://www.w3.org/2000/svg" width="64" height="64" viewBox="0 0 64 64">
  <defs>
    <linearGradient id="bg" x1="0" y1="0" x2="1" y2="1">
      <stop offset="0%" stop-color="#0f3b66"/>
      <stop offset="100%" stop-color="#126b8a"/>
    </linearGradient>
    <linearGradient id="box" x1="0" y1="0" x2="0" y2="1">
      <stop offset="0%" stop-color="#e8eff3"/>
      <stop offset="100%" stop-color="#b8c7d3"/>
    </linearGradient>
  </defs>

  <rect x="1.5" y="1.5" width="61" height="61" rx="12" fill="url(#bg)" stroke="#0a1f38" stroke-width="3"/>

  <polygon
    points="32,14 42.6,18.4 47,29 42.6,39.6 32,44 21.4,39.6 17,29 21.4,18.4"
    fill="url(#box)"
    stroke="#1c2f3a"
    stroke-width="2.2"
    stroke-linejoin="round"
  />

  <g fill="#f5f8fa" stroke="#163447" stroke-width="1.4">
    <circle cx="32" cy="11.2" r="1.8"/>
    <circle cx="44.8" cy="16.2" r="1.8"/>
    <circle cx="49.8" cy="29" r="1.8"/>
    <circle cx="44.8" cy="41.8" r="1.8"/>
    <circle cx="32" cy="46.8" r="1.8"/>
    <circle cx="19.2" cy="41.8" r="1.8"/>
    <circle cx="14.2" cy="29" r="1.8"/>
    <circle cx="19.2" cy="16.2" r="1.8"/>
  </g>

  <path d="M32 46.8v8.2" stroke="#f7c15f" stroke-width="2.2" stroke-linecap="round"/>
  <circle cx="32" cy="56.8" r="2.2" fill="#f7c15f" stroke="#784f0f" stroke-width="1.2"/>
</svg>
