<?xml version="1.0" encoding="UTF-8" standalone="no"?>
<svg
   xmlns="http://www.w3.org/2000/svg"
   width="64"
   height="64"
   viewBox="0 0 64 64"
   version="1.1">
  <defs>
    <linearGradient id="g1" x1="0" y1="0" x2="1" y2="1">
      <stop offset="0%" stop-color="#0B5FA5"/>
      <stop offset="100%" stop-color="#2D87D1"/>
    </linearGradient>
  </defs>
  <rect x="6" y="6" width="52" height="52" rx="8" ry="8" fill="url(#g1)" stroke="#083E6E" stroke-width="2"/>
  <rect x="14" y="16" width="18" height="32" rx="3" ry="3" fill="#D7ECFF" stroke="#0D3F68" stroke-width="2"/>
  <rect x="32" y="16" width="18" height="32" rx="3" ry="3" fill="#B9DCFB" stroke="#0D3F68" stroke-width="2"/>
  <path d="M22 22 L26 22 M22 28 L26 28 M22 34 L26 34 M22 40 L26 40" stroke="#0D3F68" stroke-width="2" stroke-linecap="round"/>
  <path d="M40 22 L44 22 M40 28 L44 28 M40 34 L44 34 M40 40 L44 40" stroke="#0D3F68" stroke-width="2" stroke-linecap="round"/>
  <path d="M33 51 L41 40 L36 40 L40 31 L29 44 L34 44 Z" fill="#FFC845" stroke="#8A5A00" stroke-width="1.5"/>
</svg>

