<?xml version="1.0" encoding="UTF-8" standalone="no"?>
<svg xmlns="http://www.w3.org/2000/svg" width="64" height="64" viewBox="0 0 64 64">
  <rect x="7" y="10" width="22" height="14" rx="3" ry="3" fill="#d9e6f6" stroke="#39689f" stroke-width="1.8"/>
  <text x="18" y="20" font-family="DejaVu Sans,Arial" font-size="8" text-anchor="middle" fill="#1f3f6a">A1</text>
  <rect x="35" y="10" width="22" height="14" rx="3" ry="3" fill="#d9f2e1" stroke="#2f7c4e" stroke-width="1.8"/>
  <text x="46" y="20" font-family="DejaVu Sans,Arial" font-size="8" text-anchor="middle" fill="#1f5f38">B1</text>
  <rect x="7" y="40" width="22" height="14" rx="3" ry="3" fill="#d9e6f6" stroke="#39689f" stroke-width="1.8"/>
  <text x="18" y="50" font-family="DejaVu Sans,Arial" font-size="8" text-anchor="middle" fill="#1f3f6a">A2</text>
  <rect x="35" y="40" width="22" height="14" rx="3" ry="3" fill="#d9f2e1" stroke="#2f7c4e" stroke-width="1.8"/>
  <text x="46" y="50" font-family="DejaVu Sans,Arial" font-size="8" text-anchor="middle" fill="#1f5f38">B2</text>
  <path d="M24 28 C31 28, 33 20, 40 20" fill="none" stroke="#f28c28" stroke-width="2.4"/>
  <path d="M39 17 l4 3 l-4 3" fill="none" stroke="#f28c28" stroke-width="2.4" stroke-linecap="round" stroke-linejoin="round"/>
  <path d="M24 36 C31 36, 33 44, 40 44" fill="none" stroke="#f28c28" stroke-width="2.4"/>
  <path d="M39 41 l4 3 l-4 3" fill="none" stroke="#f28c28" stroke-width="2.4" stroke-linecap="round" stroke-linejoin="round"/>
</svg>
