<svg xmlns="http://www.w3.org/2000/svg" width="64" height="64" viewBox="0 0 64 64">
  <defs>
    <linearGradient id="bgAdjust" x1="0" y1="0" x2="1" y2="1">
      <stop offset="0%" stop-color="#f2f7fb"/>
      <stop offset="100%" stop-color="#d7e6f2"/>
    </linearGradient>
    <linearGradient id="routeAdjust" x1="0" y1="0" x2="1" y2="0">
      <stop offset="0%" stop-color="#1f6bb0"/>
      <stop offset="100%" stop-color="#2d96d2"/>
    </linearGradient>
  </defs>
  <rect x="2" y="2" width="60" height="60" rx="12" fill="url(#bgAdjust)" stroke="#889ead" stroke-width="2"/>

  <path d="M36 21l6-3 6 3v6l-6 3-6-3z" fill="#fbfcfe" stroke="#4e5d68" stroke-width="1.6"/>
  <path d="M36 29l6-3 6 3v6l-6 3-6-3z" fill="#fbfcfe" stroke="#4e5d68" stroke-width="1.6"/>
  <path d="M30 25l6-3 6 3v6l-6 3-6-3z" fill="#fbfcfe" stroke="#4e5d68" stroke-width="1.6"/>
  <path d="M42 25l6-3 6 3v6l-6 3-6-3z" fill="#fbfcfe" stroke="#4e5d68" stroke-width="1.6"/>

  <circle cx="33" cy="36" r="2.6" fill="#2d96d2"/>
  <path d="M33 36l-8 0l0 9l12 0l0-6l9-8" fill="none" stroke="url(#routeAdjust)" stroke-width="3.8" stroke-linecap="round" stroke-linejoin="round"/>
  <circle cx="46" cy="31" r="2" fill="#1f6bb0"/>

  <path d="M44 12l10 10" stroke="#f08f18" stroke-width="3.2" stroke-linecap="round"/>
  <path d="M42.8 13.2l2.7-2.7c.7-.7 1.8-.7 2.5 0l7.3 7.3c.7.7.7 1.8 0 2.5l-2.7 2.7z" fill="#ffd08a" stroke="#c16e05" stroke-width="1.3"/>
  <path d="M53.4 21.1l2.5 2.5" stroke="#5f6c77" stroke-width="2" stroke-linecap="round"/>
</svg>
