<svg xmlns="http://www.w3.org/2000/svg" width="64" height="64" viewBox="0 0 64 64">
  <defs>
    <linearGradient id="bgBranch" x1="0" y1="0" x2="1" y2="1">
      <stop offset="0%" stop-color="#eef7ef"/>
      <stop offset="100%" stop-color="#d9ecd7"/>
    </linearGradient>
  </defs>
  <rect x="2" y="2" width="60" height="60" rx="12" fill="url(#bgBranch)" stroke="#8aa08a" stroke-width="2"/>
  <path d="M14 20h16v12h18" fill="none" stroke="#2c7a4b" stroke-width="4" stroke-linecap="round" stroke-linejoin="round"/>
  <path d="M30 26v18h12" fill="none" stroke="#2c7a4b" stroke-width="4" stroke-linecap="round" stroke-linejoin="round"/>
  <path d="M30 26v-10h12" fill="none" stroke="#2c7a4b" stroke-width="4" stroke-linecap="round" stroke-linejoin="round"/>
  <path d="M14 20l4-2 4 2v4l-4 2-4-2z" fill="#fbfcfe" stroke="#4e5d68" stroke-width="1.7"/>
  <path d="M48 10l4-2 4 2v4l-4 2-4-2z" fill="#fbfcfe" stroke="#4e5d68" stroke-width="1.7"/>
  <path d="M48 24l4-2 4 2v4l-4 2-4-2z" fill="#fbfcfe" stroke="#4e5d68" stroke-width="1.7"/>
  <path d="M42 42l4-2 4 2v4l-4 2-4-2z" fill="#fbfcfe" stroke="#4e5d68" stroke-width="1.7"/>
  <circle cx="30" cy="26" r="3.2" fill="#2c7a4b"/>
</svg>
