<svg xmlns="http://www.w3.org/2000/svg" width="64" height="64" viewBox="0 0 64 64">
  <defs>
    <linearGradient id="bg" x1="0" y1="0" x2="1" y2="1">
      <stop offset="0%" stop-color="#1f2d39"/>
      <stop offset="100%" stop-color="#15202a"/>
    </linearGradient>
    <linearGradient id="line" x1="0" y1="0" x2="1" y2="1">
      <stop offset="0%" stop-color="#2fe7ff"/>
      <stop offset="100%" stop-color="#18b8ff"/>
    </linearGradient>
  </defs>

  <rect x="3" y="3" width="58" height="58" rx="12" fill="url(#bg)" stroke="#2c3f4d" stroke-width="2"/>

  <rect x="11" y="12" width="12" height="12" rx="3" fill="#2a3c4a" stroke="#80b7d0" stroke-width="1.3"/>
  <polygon points="32,10 38,13.5 38,20.5 32,24 26,20.5 26,13.5" fill="#2a3c4a" stroke="#80b7d0" stroke-width="1.3"/>
  <circle cx="49" cy="18" r="6.2" fill="#2a3c4a" stroke="#80b7d0" stroke-width="1.3"/>

  <rect x="11" y="40" width="12" height="12" rx="3" fill="#2a3c4a" stroke="#80b7d0" stroke-width="1.3"/>
  <polygon points="32,38 38,41.5 38,48.5 32,52 26,48.5 26,41.5" fill="#2a3c4a" stroke="#80b7d0" stroke-width="1.3"/>
  <circle cx="49" cy="46" r="6.2" fill="#2a3c4a" stroke="#80b7d0" stroke-width="1.3"/>

  <path d="M23 18 H26" stroke="url(#line)" stroke-width="2.4" stroke-linecap="round"/>
  <path d="M38 18 H43" stroke="url(#line)" stroke-width="2.4" stroke-linecap="round"/>
  <path d="M17 24 V40" stroke="url(#line)" stroke-width="2.4" stroke-linecap="round"/>
  <path d="M32 24 V38" stroke="url(#line)" stroke-width="2.4" stroke-linecap="round"/>
  <path d="M38 46 H43" stroke="url(#line)" stroke-width="2.4" stroke-linecap="round"/>
  <path d="M23 46 H26" stroke="url(#line)" stroke-width="2.4" stroke-linecap="round"/>
</svg>
